<svg width="38" height="28" viewBox="0 0 38 28" fill="none" xmlns="http://www.w3.org/2000/svg">
<path d="M30.7325 6.85L29.7351 6.77876L29.7351 6.77893L30.7325 6.85ZM20.1255 6.85L21.1231 6.78015L21.1231 6.78005L20.1255 6.85ZM13.8947 25.6521L14.8656 25.8915L14.8657 25.8912L13.8947 25.6521ZM36.9641 25.6521L35.9923 25.8877L35.9924 25.8883L36.9641 25.6521ZM14.5006 8.30762L13.5031 8.23655L13.5031 8.23655L14.5006 8.30762ZM5.98286 8.30762L4.9853 8.37741L4.9853 8.37747L5.98286 8.30762ZM14.5624 18.9699C15.0635 19.202 15.6579 18.984 15.8901 18.4829C16.1223 17.9817 15.9042 17.3873 15.4031 17.1551L14.5624 18.9699ZM1.02891 23.3234L0.0579756 23.0841L0.0576411 23.0855L1.02891 23.3234ZM10.8042 25.4C11.3565 25.4 11.8042 24.9523 11.8042 24.4C11.8042 23.8477 11.3565 23.4 10.8042 23.4V25.4ZM29.7351 6.77893C29.5265 9.70548 27.4137 11.7 25.429 11.7V13.7C28.7317 13.7 31.4676 10.6034 31.73 6.92107L29.7351 6.77893ZM25.429 11.7C23.4433 11.7 21.3279 9.70528 21.1231 6.78015L19.128 6.91985C19.386 10.6052 22.1273 13.7 25.429 13.7V11.7ZM21.1231 6.78005C21.0202 5.31276 21.4718 4.12884 22.2259 3.31591C22.9816 2.50111 24.0954 2 25.429 2V0C23.5781 0 21.9196 0.705051 20.7595 1.95583C19.5976 3.20847 18.9898 4.94955 19.128 6.91995L21.1231 6.78005ZM25.429 2C28.0221 2 29.9356 3.97137 29.7351 6.77876L31.73 6.92124C32.0116 2.97838 29.205 0 25.429 0V2ZM25.429 16.9C19.9214 16.9 14.335 19.6834 12.9237 25.4129L14.8657 25.8912C15.9776 21.3768 20.4631 18.9 25.429 18.9V16.9ZM12.9238 25.4126C12.6389 26.5679 13.3498 28 14.8365 28V26C14.8305 26 14.8411 25.9996 14.8569 26.0083C14.8707 26.0159 14.8751 26.0231 14.8736 26.0207C14.8686 26.0134 14.8466 25.9687 14.8656 25.8915L12.9238 25.4126ZM14.8365 28H36.0224V26H14.8365V28ZM36.0224 28C37.5124 28 38.2152 26.565 37.9358 25.4158L35.9924 25.8883C36.0117 25.9675 35.9891 26.0137 35.9839 26.0214C35.9823 26.0238 35.9868 26.0164 36.0011 26.0086C36.0173 25.9996 36.0283 26 36.0224 26V28ZM37.936 25.4165C36.5247 19.5951 30.9282 16.9 25.429 16.9V18.9C30.405 18.9 34.8804 21.3009 35.9923 25.8877L37.936 25.4165ZM13.5031 8.23655C13.3416 10.5035 11.6895 12.025 10.2417 12.025V14.025C13.0174 14.025 15.2835 11.3897 15.4981 8.3787L13.5031 8.23655ZM10.2417 12.025C8.79293 12.025 7.13903 10.5033 6.98042 8.23778L4.9853 8.37747C5.19633 11.3916 7.46702 14.025 10.2417 14.025V12.025ZM6.98042 8.23784C6.82824 6.06228 8.28587 4.6 10.2417 4.6V2.6C7.10944 2.6 4.75338 5.06209 4.9853 8.37741L6.98042 8.23784ZM10.2417 4.6C12.191 4.6 13.655 6.10574 13.5031 8.23655L15.4981 8.37871C15.7303 5.11939 13.3806 2.6 10.2417 2.6V4.6ZM15.4031 17.1551C13.7847 16.4054 12.0339 16.1322 10.2417 16.1322V18.1322C11.8358 18.1322 13.28 18.3758 14.5624 18.9699L15.4031 17.1551ZM10.2417 16.1322C5.79256 16.1322 1.21621 18.3856 0.0579766 23.0841L1.99984 23.5628C2.85855 20.0794 6.33387 18.1322 10.2417 18.1322V16.1322ZM0.0576411 23.0855C-0.19172 24.1032 0.434209 25.4 1.78185 25.4V23.4C1.81081 23.4 1.8527 23.4081 1.89536 23.4315C1.93604 23.4539 1.96279 23.4821 1.97822 23.5049C2.00718 23.5478 1.99797 23.5704 2.00018 23.5614L0.0576411 23.0855ZM1.78185 25.4H10.8042V23.4H1.78185V25.4Z" fill="#0F93BD"/>
</svg>
